<svg xmlns="http://www.w3.org/2000/svg" viewBox="0 0 380 72" fill="none" role="img" aria-label="veloxous">
  
  
  <g transform="translate(8 6) scale(0.42) rotate(11 50 70)">
    <path d="M 50 64 C 42 56, 34 48, 34 36 C 34 24, 41 14, 50 14 C 59 14, 66 24, 66 36 C 66 48, 58 56, 50 64 C 42 72, 28 80, 28 94 C 28 112, 38 124, 50 124 C 62 124, 72 112, 72 94 C 72 80, 58 72, 50 64 Z" stroke="#0B2B23" stroke-width="9" stroke-linejoin="round" stroke-linecap="round"></path>
    <circle cx="64" cy="20" r="7" fill="#FFB400"></circle>
  </g>
  <text x="64" y="52" class="wm" fill="#0B2B23">veloxous</text>
</svg>